# xmcd
# 
# Track frame offsets:
#     150
#     24600
#     45438
#     65840
#     88278
#     108793
#     131343
#     150835
#     172878
#     194783
#     216838
# 
# Disc length: 3181
# 
# Revision: 8
# Processed by: cddbd v1.5.2PL0 Copyright (c) Steve Scherf et al.
# Submitted via: fre:ac v1.0.17
# 
DISCID=910c6b0b
DTITLE=夏川りみ - 風の道
DYEAR=2004
DGENRE=Japanese Folk
TTITLE0=会いたくて
TTITLE1=愛よ　愛よ
TTITLE2=時
TTITLE3=夏河 ～ シアホー
TTITLE4=百万の星
TTITLE5=ずっと、憶えてる
TTITLE6=掌の海
TTITLE7=ゆいま～る
TTITLE8=明日の君へ
TTITLE9=海の手招き
TTITLE10=月の虹
EXTD=YEAR: 2004
EXTT0=
EXTT1=
EXTT2=
EXTT3=
EXTT4=
EXTT5=
EXTT6=
EXTT7=
EXTT8=
EXTT9=
EXTT10=
PLAYORDER=
